<svg width="24" height="24" viewBox="0 0 24 24" fill="none" xmlns="http://www.w3.org/2000/svg">
<path d="M6.00024 18C8.20938 18 10.0002 16.2091 10.0002 14C10.0002 11.7909 8.20938 10 6.00024 10C3.7911 10 2.00024 11.7909 2.00024 14C2.00024 16.2091 3.7911 18 6.00024 18Z" stroke="url(#paint0_linear_1404_10846)" stroke-width="1.5" stroke-linecap="round" stroke-linejoin="round"/>
<path d="M18.0002 18C20.2094 18 22.0002 16.2091 22.0002 14C22.0002 11.7909 20.2094 10 18.0002 10C15.7911 10 14.0002 11.7909 14.0002 14C14.0002 16.2091 15.7911 18 18.0002 18Z" stroke="url(#paint1_linear_1404_10846)" stroke-width="1.5" stroke-linecap="round" stroke-linejoin="round"/>
<path d="M10.0002 14L10.2112 13.894C10.7667 13.6162 11.3792 13.4716 12.0002 13.4716C12.6213 13.4716 13.2338 13.6162 13.7892 13.894L14.0002 14M19.0002 6L21.8382 12.623C21.9451 12.872 22.0002 13.1401 22.0002 13.411V14M5.00024 6L2.16224 12.623C2.05556 12.8717 2.00045 13.1394 2.00024 13.41V14" stroke="url(#paint2_linear_1404_10846)" stroke-width="1.5" stroke-linecap="round" stroke-linejoin="round"/>
<defs>
<linearGradient id="paint0_linear_1404_10846" x1="2.89965" y1="18" x2="10.6571" y2="17.1153" gradientUnits="userSpaceOnUse">
<stop stop-color="#175DF8"/>
<stop offset="1" stop-color="#004EFB"/>
</linearGradient>
<linearGradient id="paint1_linear_1404_10846" x1="14.8997" y1="18" x2="22.6571" y2="17.1153" gradientUnits="userSpaceOnUse">
<stop stop-color="#175DF8"/>
<stop offset="1" stop-color="#004EFB"/>
</linearGradient>
<linearGradient id="paint2_linear_1404_10846" x1="4.24876" y1="14" x2="22.4176" y2="8.8199" gradientUnits="userSpaceOnUse">
<stop stop-color="#175DF8"/>
<stop offset="1" stop-color="#004EFB"/>
</linearGradient>
</defs>
</svg>
