<svg width="60" height="60" viewBox="0 0 60 60" fill="none" xmlns="http://www.w3.org/2000/svg">
<path d="M55 29.725V31.95C55 40.85 52.775 43.05 43.9 43.05H16.1C7.225 43.05 5 40.825 5 31.95V16.1C5 7.225 7.225 5 16.1 5H20" stroke="white" stroke-width="2" stroke-linecap="round" stroke-linejoin="round"/>
<path d="M30 43.0498V54.9998" stroke="white" stroke-width="2" stroke-linecap="round" stroke-linejoin="round"/>
<path d="M5 32.5H55" stroke="white" stroke-width="2" stroke-linecap="round" stroke-linejoin="round"/>
<path d="M18.75 55H41.25" stroke="white" stroke-width="2" stroke-linecap="round" stroke-linejoin="round"/>
<path d="M44.65 23.4254H32.75C29.3 23.4254 28.15 21.1254 28.15 18.8254V10.0254C28.15 7.27539 30.4 5.02539 33.15 5.02539H44.65C47.2 5.02539 49.25 7.07539 49.25 9.62539V18.8254C49.25 21.3754 47.2 23.4254 44.65 23.4254Z" stroke="white" stroke-width="2" stroke-linecap="round" stroke-linejoin="round"/>
<path d="M52.275 19.8002L49.25 17.6752V10.7752L52.275 8.65018C53.775 7.62518 55 8.25018 55 10.0752V18.4002C55 20.2252 53.775 20.8502 52.275 19.8002Z" stroke="white" stroke-width="2" stroke-linecap="round" stroke-linejoin="round"/>
</svg>
