<?xml version="1.0" standalone="no"?>
<!DOCTYPE svg PUBLIC "-//W3C//DTD SVG 20010904//EN"
 "http://www.w3.org/TR/2001/REC-SVG-20010904/DTD/svg10.dtd">
<svg version="1.0" xmlns="http://www.w3.org/2000/svg"
 width="541.000000pt" height="465.000000pt" viewBox="0 0 541.000000 465.000000"
 preserveAspectRatio="xMidYMid meet">

<g transform="translate(0.000000,465.000000) scale(0.100000,-0.100000)"
fill="#000000" stroke="none">
<path d="M4599 3387 c-25 -19 -18 -53 20 -92 l34 -36 -5 -92 c-4 -68 -12 -109
-31 -157 -15 -35 -25 -65 -24 -66 8 -9 71 54 88 88 25 49 49 156 49 220 0 44
-4 51 -51 95 -60 56 -59 56 -80 40z"/>
<path d="M2770 3088 c1 -21 2 -21 11 -5 10 16 12 16 42 -4 18 -12 49 -38 70
-58 47 -45 49 -32 1 17 -69 71 -124 93 -124 50z"/>
<path d="M2740 3031 c0 -5 7 -12 16 -15 14 -5 15 -4 4 9 -14 17 -20 19 -20 6z"/>
<path d="M2780 3001 c0 -12 30 -30 70 -41 28 -8 81 12 62 24 -6 3 -13 2 -17
-4 -11 -17 -61 -11 -89 11 -14 11 -26 16 -26 10z"/>
<path d="M3173 2974 c-3 -9 -1 -32 6 -51 11 -29 10 -37 -3 -52 -21 -24 -20
-49 5 -90 18 -30 19 -35 5 -50 -9 -10 -16 -24 -16 -32 0 -22 29 -59 47 -59 16
0 15 34 -2 88 -6 17 -3 22 9 22 17 0 20 -5 30 -52 8 -37 42 -55 55 -30 13 25
-7 63 -42 80 -18 9 -27 21 -27 38 0 28 7 30 31 8 10 -9 23 -13 28 -9 18 10 12
61 -8 79 -23 21 -41 14 -41 -15 0 -27 -14 -24 -30 6 -10 20 -11 28 -2 37 18
18 14 63 -6 81 -23 21 -31 21 -39 1z m41 -30 c9 -22 8 -24 -9 -24 -8 0 -15 9
-15 20 0 24 15 27 24 4z m6 -141 c0 -15 -5 -23 -12 -21 -19 7 -32 34 -24 53 9
24 36 1 36 -32z m74 31 c8 -22 8 -24 -8 -24 -15 0 -28 24 -19 34 11 10 21 7
27 -10z m0 -130 c4 -9 4 -19 2 -21 -8 -8 -26 8 -26 23 0 19 16 18 24 -2z m-79
-33 c-10 -16 -25 -3 -25 22 0 20 1 20 16 5 9 -9 13 -21 9 -27z"/>
<path d="M3630 2660 c0 -21 13 -44 45 -80 25 -28 45 -57 45 -65 0 -8 5 -15 11
-15 15 0 1 75 -22 122 -17 34 -53 68 -71 68 -5 0 -8 -13 -8 -30z"/>
<path d="M3571 2607 c-1 -61 56 -157 93 -157 3 0 6 14 6 30 0 22 -12 43 -40
73 -22 24 -44 54 -49 68 -9 22 -10 21 -10 -14z"/>
<path d="M2770 2606 c0 -9 -7 -16 -15 -16 -8 0 -15 -4 -15 -10 0 -5 -7 -10
-15 -10 -8 0 -15 -4 -15 -9 0 -5 7 -14 15 -21 8 -7 15 -16 15 -21 0 -5 -7 -9
-15 -9 -8 0 -15 -4 -15 -9 0 -5 7 -14 15 -21 8 -7 15 -16 15 -21 0 -5 -7 -9
-15 -9 -17 0 -20 -16 -6 -24 11 -7 51 -88 51 -104 0 -7 5 -12 10 -12 6 0 10 5
10 10 0 6 5 10 10 10 6 0 10 -9 10 -19 0 -26 17 -36 23 -14 3 14 7 11 17 -12
7 -17 14 -24 17 -17 3 6 11 12 19 12 8 0 14 7 14 16 0 10 6 14 15 10 9 -3 15
0 15 10 0 8 -7 17 -15 20 -8 4 -15 13 -15 21 0 9 6 13 15 9 21 -8 19 21 -1 32
-9 5 -14 15 -10 21 4 6 12 9 17 6 5 -4 9 0 9 8 0 8 -7 17 -15 21 -8 3 -15 14
-15 24 0 11 -7 25 -15 32 -8 7 -15 21 -15 31 0 10 -4 21 -10 24 -5 3 -10 -1
-10 -10 0 -9 -4 -13 -10 -10 -5 3 -10 15 -10 26 0 10 -4 19 -10 19 -5 0 -10
-4 -10 -10 0 -5 -4 -10 -10 -10 -5 0 -10 9 -10 19 0 11 -4 23 -10 26 -5 3 -10
-1 -10 -9z m58 -91 l52 -30 0 -83 c0 -93 5 -91 -82 -34 l-38 25 0 79 c0 44 3
78 8 76 4 -1 31 -16 60 -33z"/>
<path d="M1356 2560 c-3 -8 -16 -65 -30 -127 l-24 -111 24 10 c13 6 26 23 29
39 7 29 28 39 40 19 13 -22 23 2 13 31 -8 24 -13 27 -24 18 -16 -13 -17 -6 -6
36 10 33 -11 112 -22 85z"/>
<path d="M3750 2437 c-13 -29 -20 -32 -58 -32 -23 0 -42 -3 -42 -7 0 -10 44
-21 66 -16 22 4 57 51 52 71 -2 10 -8 4 -18 -16z"/>
<path d="M1150 2391 c0 -5 6 -12 13 -15 10 -5 10 -7 0 -12 -7 -3 -13 -10 -13
-16 0 -6 6 -6 15 2 8 7 15 18 15 25 0 7 -7 15 -15 19 -8 3 -15 1 -15 -3z"/>
<path d="M1110 2370 c0 -8 5 -22 10 -30 9 -13 10 -13 10 0 0 8 -5 22 -10 30
-9 13 -10 13 -10 0z"/>
<path d="M1055 2351 c-3 -6 -2 -11 4 -11 5 0 8 -9 6 -20 -2 -11 0 -20 6 -20 5
0 7 12 5 26 -6 32 -12 39 -21 25z"/>
<path d="M3240 2353 c0 -11 12 -26 32 -41 26 -20 32 4 6 27 -22 21 -38 27 -38
14z"/>
<path d="M1041 2294 c0 -11 3 -14 6 -6 3 7 2 16 -1 19 -3 4 -6 -2 -5 -13z"/>
<path d="M3216 2255 c-20 -15 -16 -19 17 -15 15 1 17 -3 12 -21 -4 -12 -9 -47
-10 -78 -2 -31 -7 -64 -10 -73 -8 -21 0 -48 15 -48 5 0 9 12 8 28 -3 53 2 103
11 98 5 -4 12 0 14 6 3 7 3 -7 0 -32 -4 -35 -1 -49 11 -59 14 -12 15 -8 10 48
-5 43 -3 61 5 61 14 0 14 22 0 54 -7 14 -17 22 -25 19 -8 -3 -14 1 -14 11 0
20 -19 20 -44 1z m52 -70 c-6 -14 -13 -24 -14 -22 -6 6 9 47 17 47 5 0 3 -11
-3 -25z m28 -2 c-10 -10 -19 5 -10 18 6 11 8 11 12 0 2 -7 1 -15 -2 -18z"/>
<path d="M833 2239 c-23 -9 -67 -69 -57 -79 3 -3 15 7 26 23 11 15 25 27 33
27 16 0 39 27 28 33 -4 3 -18 1 -30 -4z"/>
<path d="M3557 2153 c-15 -14 -6 -22 13 -11 16 10 24 9 49 -10 17 -12 34 -22
38 -22 5 0 33 -16 63 -36 30 -20 47 -27 37 -16 -10 11 -39 30 -65 43 -26 13
-58 32 -71 42 -24 17 -52 22 -64 10z"/>
<path d="M3570 2093 c1 -63 23 -156 38 -161 9 -3 11 10 6 50 -3 29 -2 70 4 91
9 33 8 39 -11 52 -33 23 -37 19 -37 -32z"/>
<path d="M3160 2104 c0 -17 7 -37 15 -44 13 -10 15 -9 15 12 0 13 -7 33 -15
44 -14 18 -14 17 -15 -12z"/>
<path d="M3640 2080 c-10 -19 -8 -24 10 -37 18 -13 21 -24 19 -67 -1 -29 0
-57 4 -62 3 -5 7 -40 9 -78 3 -71 18 -100 41 -77 9 10 8 11 -4 6 -10 -4 -20
-2 -24 4 -3 6 1 11 9 11 21 0 26 75 10 169 -4 28 -3 45 4 50 15 9 -15 69 -45
88 -19 13 -23 12 -33 -7z"/>
<path d="M3735 2035 c8 -16 15 -50 16 -75 0 -51 12 -33 22 35 3 22 3 35 0 28
-3 -8 -13 -3 -29 15 l-24 27 15 -30z"/>
<path d="M3270 2021 c0 -16 38 -51 54 -51 10 0 -7 35 -25 53 -23 22 -29 22
-29 -2z"/>
<path d="M3630 2000 c0 -19 4 -42 9 -49 8 -12 11 -9 16 11 5 18 1 35 -9 50
-16 22 -16 22 -16 -12z"/>
<path d="M3782 1965 c0 -16 2 -22 5 -12 2 9 2 23 0 30 -3 6 -5 -1 -5 -18z"/>
<path d="M3725 1960 c-3 -5 -1 -10 4 -10 6 0 11 5 11 10 0 6 -2 10 -4 10 -3 0
-8 -4 -11 -10z"/>
<path d="M3759 1891 c-14 -34 -15 -38 -1 -37 8 0 17 -5 20 -13 3 -10 -1 -12
-17 -8 -16 4 -22 0 -27 -19 -4 -14 -4 -28 0 -31 3 -4 6 3 6 15 0 17 6 22 25
22 26 0 35 23 14 36 -6 4 -8 20 -4 40 8 44 4 43 -16 -5z"/>
<path d="M3610 1900 c14 -11 34 -25 45 -31 14 -7 12 -4 -5 11 -14 11 -34 25
-45 31 -14 7 -12 4 5 -11z"/>
<path d="M4490 1504 c0 -8 -5 -12 -11 -9 -14 9 -76 -21 -88 -43 -6 -9 -11 -14
-11 -10 0 4 -28 -6 -61 -24 l-62 -31 24 -18 c13 -10 27 -19 32 -19 24 -1 23
-2 26 35 1 12 5 13 27 3 17 -8 28 -9 32 -1 4 5 18 13 32 16 14 3 35 15 47 27
12 11 27 20 33 20 6 0 8 5 5 10 -3 6 -1 10 5 10 6 0 8 5 4 11 -5 8 -1 8 14 0
13 -7 23 -7 27 -1 6 9 -44 40 -65 40 -5 0 -10 -7 -10 -16z m-21 -37 c11 -14 5
-27 -11 -27 -5 0 -6 5 -2 11 4 8 -1 9 -17 4 -21 -7 -22 -6 -10 9 16 20 25 20
40 3z m-32 -53 c-7 -7 -37 7 -37 17 0 6 9 5 21 -1 11 -7 19 -14 16 -16z"/>
<path d="M4267 1353 c-12 -12 -7 -22 8 -17 8 4 15 10 15 15 0 11 -14 12 -23 2z"/>
<path d="M4206 1338 c5 -8 0 -9 -14 -6 -26 7 -41 -10 -21 -23 9 -6 4 -7 -16
-4 -57 10 -76 -37 -20 -51 35 -9 55 1 55 28 0 17 3 19 12 10 17 -17 31 -15 24
4 -4 12 -1 14 13 9 29 -9 35 11 9 29 -26 19 -52 21 -42 4z m-41 -58 c3 -5 -3
-10 -14 -10 -11 0 -23 5 -26 10 -3 6 3 10 14 10 11 0 23 -4 26 -10z"/>
</g>
</svg>
