<svg width="232" height="48" viewBox="0 0 232 48" fill="none" xmlns="http://www.w3.org/2000/svg">
<path d="M0.712646 13.7326V2.63477H6.28506C6.81418 2.63477 7.28401 2.72001 7.69414 2.89048C8.10466 3.06057 8.44477 3.29741 8.71488 3.60101C8.9846 3.90424 9.19004 4.2663 9.33045 4.68682C9.47086 5.10733 9.54088 5.5731 9.54088 6.08413C9.54088 6.59478 9.47358 7.07412 9.33852 7.52104C9.20347 7.96833 9.00376 8.35416 8.73901 8.67888C8.47464 9.0036 8.13716 9.25894 7.72665 9.44525C7.31651 9.63156 6.83561 9.72472 6.28506 9.72472H2.54332V13.7326H0.712646ZM2.54332 4.29571V8.0321H5.65342C6.36618 8.0321 6.88725 7.8752 7.21628 7.56103C7.54569 7.24687 7.71058 6.75469 7.71058 6.08413C7.71058 5.44525 7.53498 4.9874 7.18415 4.71057C6.83293 4.43412 6.32295 4.29571 5.65342 4.29571H2.54332Z" fill="#2B2A29"/>
<path d="M18.839 13.7326H10.6099V2.63477H18.8875L18.3526 4.31155H12.4241V7.01001H17.8181V8.70263H12.4241V12.0558H18.839V13.7326Z" fill="#2B2A29"/>
<path d="M22.1272 8.19131C22.1272 8.81963 22.1731 9.38384 22.2646 9.88393C22.3564 10.3844 22.524 10.8102 22.767 11.1613C23.0099 11.5128 23.35 11.7817 23.7873 11.968C24.2246 12.154 24.7943 12.2471 25.4963 12.2471C25.9929 12.2471 26.4306 12.1913 26.8086 12.0797C27.1862 11.968 27.5482 11.7312 27.8936 11.3691L29.1087 12.487C28.6225 12.9977 28.0719 13.365 27.4563 13.5886C26.8407 13.8123 26.1877 13.9239 25.4963 13.9239C24.5567 13.9239 23.7551 13.7855 23.091 13.5087C22.4268 13.2319 21.8839 12.8434 21.4631 12.3433C21.0419 11.8428 20.7311 11.2439 20.5314 10.5466C20.3317 9.84962 20.2319 9.07494 20.2319 8.22335V7.63277C20.2319 6.82342 20.3478 6.09701 20.5801 5.45285C20.8123 4.80906 21.1524 4.26335 21.6008 3.81606C22.0488 3.36914 22.5994 3.02859 23.2528 2.79438C23.9063 2.56017 24.6539 2.44287 25.4963 2.44287C26.1552 2.44287 26.7975 2.54959 27.4238 2.7623C28.0505 2.97539 28.6011 3.32125 29.0762 3.80022L27.845 5.0297C27.4995 4.68914 27.1434 4.45494 26.7761 4.32708C26.4088 4.19961 25.9822 4.13549 25.4963 4.13549C24.3409 4.13549 23.4904 4.43645 22.9452 5.03762C22.3997 5.63917 22.1272 6.51491 22.1272 7.66445V8.19131Z" fill="#2B2A29"/>
<path d="M37.7422 13.7326V4.31155H32.5428V13.7326H30.7122V2.63477H39.5729V13.7326H37.7422Z" fill="#2B2A29"/>
<path d="M45.2748 10.491C45.0154 10.3952 44.7916 10.2515 44.6026 10.0599C44.4136 9.86831 44.2595 9.64993 44.1409 9.40516L40.9822 2.89039L42.7478 2.42725L45.5985 8.28732C45.6635 8.41517 45.7335 8.50305 45.8093 8.55095C45.8847 8.59885 45.9875 8.62299 46.1169 8.62299L48.9354 2.42725L50.6364 2.87415L46.3277 12.3435C46.2412 12.5457 46.1468 12.7399 46.0442 12.9262C45.9417 13.1125 45.812 13.28 45.6555 13.4293C45.4987 13.5783 45.3069 13.6978 45.0804 13.7884C44.8536 13.8789 44.5728 13.9241 44.238 13.9241C44.0543 13.9241 43.8681 13.9003 43.6791 13.8524C43.4901 13.8046 43.3095 13.7646 43.1366 13.7325V12.2794H43.687C43.9357 12.2794 44.1435 12.2447 44.3107 12.1757C44.4783 12.1063 44.616 11.9494 44.7238 11.7046L45.2748 10.491Z" fill="#2B2A29"/>
<path d="M60.5655 10.2836C60.5655 11.4547 60.2418 12.3221 59.5937 12.8863C58.946 13.4505 58.0603 13.7326 56.937 13.7326H51.7698V2.63477H59.448L58.8971 4.31155H53.6005V7.01001H57.0182C58.1522 7.01001 59.0268 7.28686 59.6424 7.8405C60.2579 8.39415 60.5655 9.20838 60.5655 10.2836ZM58.7998 10.2836C58.7998 9.66624 58.622 9.24575 58.2654 9.0221C57.9092 8.79846 57.3854 8.6868 56.6941 8.6868H53.6005V12.072H56.6134C56.9482 12.072 57.2504 12.0426 57.5205 11.9842C57.7902 11.9257 58.0198 11.8299 58.2088 11.6968C58.3978 11.5637 58.5435 11.3826 58.6461 11.1537C58.7486 10.9248 58.7998 10.6347 58.7998 10.2836Z" fill="#2B2A29"/>
<path d="M62.3799 13.9242C62.1423 13.9242 61.894 13.8605 61.635 13.7326V12.2316C62.0884 12.2316 62.4151 12.0958 62.6148 11.8243C62.8149 11.5531 62.9469 11.2363 63.012 10.8742C63.0441 10.6932 63.0739 10.4937 63.1011 10.2757C63.1279 10.0573 63.1523 9.80995 63.1737 9.53313L63.7407 2.63477H70.3335V13.7326H68.5032V4.31155H65.4092L64.9069 9.91631C64.8855 10.0868 64.861 10.2701 64.8342 10.4673C64.807 10.6642 64.7722 10.8795 64.729 11.1137C64.6746 11.4332 64.5966 11.7606 64.494 12.0958C64.3915 12.4311 64.2485 12.7347 64.0648 13.0062C63.8812 13.2774 63.6543 13.4984 63.3842 13.6689C63.1144 13.839 62.7797 13.9242 62.3799 13.9242Z" fill="#2B2A29"/>
<path d="M79.6801 13.7326V5.42939L74.0756 13.7326H72.2935V2.63477H74.1241V10.8742L79.6801 2.63477H81.5104V13.7326H79.6801Z" fill="#2B2A29"/>
<path d="M85.3012 2.63477V7.2974H86.1758L89.2858 2.63477H91.327L87.8282 8.01622L92.0072 13.7326H89.8853L86.2243 8.71888H85.3012V13.7326H83.4705V2.63477H85.3012Z" fill="#2B2A29"/>
<path d="M96.4942 9.00623H99.8798L98.4057 5.28572L98.1463 4.04L97.8872 5.28572L96.4942 9.00623ZM95.9434 10.571L94.7608 13.7326H92.8333L97.0287 2.63477H99.2156L103.622 13.7326H101.726L100.479 10.571H95.9434Z" fill="#2B2A29"/>
<path d="M106.683 8.67068V13.7165H104.868V2.61865H106.683V6.97806H112.061V2.61865H113.891V13.7165H112.061V8.67068H106.683Z" fill="#2B2A29"/>
<path d="M117.39 8.19131C117.39 8.81963 117.436 9.38384 117.528 9.88393C117.619 10.3844 117.787 10.8102 118.03 11.1613C118.273 11.5128 118.613 11.7817 119.05 11.968C119.488 12.154 120.057 12.2471 120.759 12.2471C121.256 12.2471 121.694 12.1913 122.072 12.0797C122.449 11.968 122.811 11.7312 123.157 11.3691L124.372 12.487C123.885 12.9977 123.335 13.365 122.719 13.5886C122.104 13.8123 121.451 13.9239 120.759 13.9239C119.82 13.9239 119.018 13.7855 118.354 13.5087C117.69 13.2319 117.147 12.8434 116.726 12.3433C116.305 11.8428 115.994 11.2439 115.794 10.5466C115.595 9.84962 115.495 9.07494 115.495 8.22335V7.63277C115.495 6.82342 115.611 6.09701 115.843 5.45285C116.075 4.80906 116.415 4.26335 116.864 3.81606C117.312 3.36914 117.862 3.02859 118.516 2.79438C119.169 2.56017 119.917 2.44287 120.759 2.44287C121.418 2.44287 122.06 2.54959 122.687 2.7623C123.313 2.97539 123.864 3.32125 124.339 3.80022L123.108 5.0297C122.763 4.68914 122.406 4.45494 122.039 4.32708C121.672 4.19961 121.245 4.13549 120.759 4.13549C119.604 4.13549 118.753 4.43645 118.208 5.03762C117.663 5.63917 117.39 6.51491 117.39 7.66445V8.19131Z" fill="#2B2A29"/>
<path d="M127.806 2.63477V7.2974H128.68L131.79 2.63477H133.832L130.333 8.01622L134.512 13.7326H132.39L128.729 8.71888H127.806V13.7326H125.975V2.63477H127.806Z" fill="#2B2A29"/>
<path d="M143.405 13.7326V5.42939L137.8 13.7326H136.018V2.63477H137.849V10.8742L143.405 2.63477H145.235V13.7326H143.405Z" fill="#2B2A29"/>
<path d="M154.582 13.7326V5.42937L148.977 13.7326H147.195V2.63475H149.026V10.8742L154.582 2.63475H156.412V13.7326H154.582ZM151.698 1.94834C151.396 1.94834 151.102 1.91364 150.815 1.84462C150.529 1.77523 150.273 1.66094 150.046 1.50103C149.819 1.3415 149.638 1.13935 149.504 0.894209C149.369 0.649442 149.301 0.351499 149.301 0H150.451C150.451 0.319442 150.573 0.545728 150.815 0.678861C151.058 0.811993 151.353 0.878372 151.698 0.878372C152.022 0.878372 152.311 0.814631 152.565 0.686779C152.819 0.558927 152.946 0.330002 152.946 0H154.096C154.096 0.351499 154.025 0.652108 153.885 0.902532C153.745 1.15258 153.561 1.3547 153.334 1.50895C153.108 1.66358 152.851 1.77523 152.565 1.84462C152.279 1.91364 151.99 1.94834 151.698 1.94834Z" fill="#2B2A29"/>
<path d="M171.023 12.0558H172.092V16.0159H170.391V13.7326H161.855V2.63477H163.685V12.0558H169.193V2.63477H171.023V12.0558Z" fill="#2B2A29"/>
<path d="M182.071 13.7326H173.842V2.63477H182.119L181.584 4.31155H175.656V7.01001H181.05V8.70263H175.656V12.0558H182.071V13.7326Z" fill="#2B2A29"/>
<path d="M185.634 8.67068V13.7165H183.82V2.61865H185.634V6.97806H191.012V2.61865H192.843V13.7165H191.012V8.67068H185.634Z" fill="#2B2A29"/>
<path d="M199.484 4.31155V13.7326H197.653V4.31155H194.09V2.63477H203.226L202.691 4.31155H199.484Z" fill="#2B2A29"/>
<path d="M204.392 13.7326V2.63477H209.965C210.494 2.63477 210.964 2.72001 211.374 2.89048C211.784 3.06057 212.124 3.29741 212.395 3.60101C212.664 3.90424 212.87 4.2663 213.01 4.68682C213.151 5.10733 213.221 5.5731 213.221 6.08413C213.221 6.59478 213.153 7.07412 213.018 7.52104C212.883 7.96833 212.683 8.35416 212.419 8.67888C212.154 9.0036 211.817 9.25894 211.406 9.44525C210.996 9.63156 210.515 9.72472 209.965 9.72472H206.223V13.7326H204.392ZM206.223 4.29571V8.0321H209.333C210.046 8.0321 210.567 7.8752 210.896 7.56103C211.225 7.24687 211.39 6.75469 211.39 6.08413C211.39 5.44525 211.215 4.9874 210.864 4.71057C210.513 4.43412 210.003 4.29571 209.333 4.29571H206.223Z" fill="#2B2A29"/>
<path d="M8.0993 30.7707V22.4675L2.49475 30.7707H0.712646V19.6729H2.54332V27.9123L8.0993 19.6729H9.92959V30.7707H8.0993Z" fill="#2B2A29"/>
<path d="M13.7039 25.7088V30.7546H11.8896V19.6567H13.7039V24.0161H19.0819V19.6567H20.9122V30.7546H19.0819V25.7088H13.7039Z" fill="#2B2A29"/>
<path d="M27.5215 30.7704V29.2373C27.3379 29.3014 27.1217 29.3546 26.8734 29.3973C26.6251 29.4399 26.4089 29.461 26.2257 29.461C25.5883 29.461 25.0293 29.352 24.5488 29.1336C24.0682 28.9156 23.6689 28.6147 23.3502 28.2315C23.0319 27.8483 22.7943 27.3984 22.6374 26.8821C22.4809 26.3657 22.4028 25.8045 22.4028 25.1977V24.8783C22.4028 24.2715 22.4809 23.7099 22.6374 23.1936C22.7943 22.6773 23.0319 22.2277 23.3502 21.8445C23.6689 21.461 24.0682 21.1604 24.5488 20.942C25.0293 20.724 25.5883 20.6147 26.2257 20.6147C26.4089 20.6147 26.6251 20.6388 26.8734 20.6867C27.1217 20.7346 27.3379 20.7851 27.5215 20.8383V19.481H29.3518V20.8383C29.5355 20.7851 29.7512 20.7346 29.9995 20.6867C30.2482 20.6388 30.464 20.6147 30.6476 20.6147C31.2846 20.6147 31.8436 20.724 32.3241 20.942C32.8047 21.1604 33.2045 21.461 33.5228 21.8445C33.8415 22.2277 34.0791 22.6773 34.2356 23.1936C34.3921 23.7099 34.4704 24.2715 34.4704 24.8783V25.1977C34.4704 25.8045 34.3921 26.3657 34.2356 26.8821C34.0791 27.3984 33.8415 27.8483 33.5228 28.2315C33.2045 28.6147 32.8047 28.9156 32.3241 29.1336C31.8436 29.352 31.2846 29.461 30.6476 29.461C30.464 29.461 30.2482 29.4399 29.9995 29.3973C29.7512 29.3546 29.5355 29.3014 29.3518 29.2373V30.7704H27.5215ZM32.7695 25.2456V24.8304C32.7695 24.4683 32.7266 24.133 32.6401 23.8245C32.5537 23.5156 32.4213 23.2468 32.2431 23.0178C32.0652 22.7893 31.8329 22.6109 31.5467 22.4831C31.2605 22.3552 30.9231 22.2915 30.5344 22.2915C30.0807 22.2915 29.6866 22.3714 29.3518 22.5309V27.5609C29.5248 27.6567 29.7107 27.7205 29.9108 27.7525C30.1105 27.7846 30.3075 27.8004 30.5019 27.8004C30.9013 27.8004 31.2445 27.7366 31.5306 27.6088C31.8168 27.4809 32.0487 27.3026 32.227 27.074C32.4053 26.8451 32.5376 26.5736 32.6237 26.2594C32.7102 25.9456 32.7588 25.6073 32.7695 25.2456ZM24.1035 25.2456C24.1142 25.6073 24.1628 25.9456 24.2493 26.2594C24.3357 26.5736 24.4681 26.8451 24.646 27.074C24.8243 27.3026 25.0538 27.4809 25.3346 27.6088C25.6155 27.7366 25.9609 27.8004 26.3714 27.8004C26.5658 27.8004 26.7629 27.7846 26.9626 27.7525C27.1623 27.7205 27.3486 27.6567 27.5215 27.5609V22.5309C27.1757 22.3714 26.7816 22.2915 26.3389 22.2915C25.9502 22.2915 25.6127 22.3552 25.3266 22.4831C25.0404 22.6109 24.8082 22.7893 24.6299 23.0178C24.4516 23.2468 24.3196 23.5156 24.2331 23.8245C24.1467 24.133 24.1035 24.4683 24.1035 24.8304V25.2456Z" fill="#2B2A29"/>
<path d="M41.0794 30.962C40.1723 30.962 39.3758 30.821 38.6902 30.5388C38.0042 30.2567 37.4349 29.8604 36.9812 29.3493C36.5278 28.8383 36.1846 28.2315 35.9528 27.5289C35.7205 26.8263 35.6042 26.0546 35.6042 25.2136V24.7825C35.6042 24.0052 35.7393 23.2894 36.0094 22.6346C36.2791 21.9799 36.6572 21.4214 37.143 20.9582C37.6293 20.4951 38.207 20.133 38.8765 19.8724C39.546 19.6114 40.2802 19.481 41.0794 19.481C41.8787 19.481 42.6129 19.6114 43.2824 19.8724C43.9519 20.133 44.527 20.4951 45.0075 20.9582C45.488 21.4214 45.8634 21.9799 46.1335 22.6346C46.4032 23.2894 46.5383 24.0052 46.5383 24.7825V25.2136C46.5383 26.0546 46.425 26.8263 46.1981 27.5289C45.9713 28.2315 45.6284 28.8383 45.1693 29.3493C44.7106 29.8604 44.1409 30.2567 43.4607 30.5388C42.7801 30.821 41.9866 30.962 41.0794 30.962ZM41.0794 21.1577C39.8915 21.1577 38.9978 21.4877 38.3987 22.1477C37.7992 22.8077 37.4996 23.6967 37.4996 24.8145V25.1815C37.4996 25.7672 37.5589 26.3099 37.6779 26.8104C37.7965 27.3109 37.9962 27.7446 38.277 28.1119C38.5578 28.4789 38.9224 28.7663 39.3704 28.9741C39.8184 29.1815 40.3774 29.2852 41.0469 29.2852C41.7383 29.2852 42.3133 29.1868 42.772 28.9899C43.2311 28.793 43.5985 28.5136 43.8735 28.1515C44.149 27.7898 44.346 27.3561 44.465 26.8504C44.5836 26.3446 44.6429 25.7883 44.6429 25.1815V24.8145C44.6429 23.6967 44.3433 22.8077 43.7442 22.1477C43.1447 21.4877 42.2563 21.1577 41.0794 21.1577Z" fill="#2B2A29"/>
<path d="M49.9728 19.6729V24.3355H50.8473L53.9574 19.6729H55.9985L52.4997 25.0543L56.6787 30.7707H54.5569L50.8959 25.757H49.9728V30.7707H48.1421V19.6729H49.9728Z" fill="#2B2A29"/>
<path d="M63.3197 30.962C62.4126 30.962 61.616 30.821 60.9304 30.5388C60.2445 30.2567 59.6752 29.8604 59.2214 29.3493C58.7681 28.8383 58.4248 28.2315 58.193 27.5289C57.9608 26.8263 57.8445 26.0546 57.8445 25.2136V24.7825C57.8445 24.0052 57.9795 23.2894 58.2496 22.6346C58.5194 21.9799 58.8973 21.4214 59.3832 20.9582C59.8695 20.4951 60.4472 20.133 61.1167 19.8724C61.7863 19.6114 62.5205 19.481 63.3197 19.481C64.1189 19.481 64.8531 19.6114 65.5226 19.8724C66.1922 20.133 66.7672 20.4951 67.2477 20.9582C67.7282 21.4214 68.1036 21.9799 68.3737 22.6346C68.6434 23.2894 68.7784 24.0052 68.7784 24.7825V25.2136C68.7784 26.0546 68.6652 26.8263 68.4384 27.5289C68.2115 28.2315 67.8687 28.8383 67.4096 29.3493C66.9508 29.8604 66.3812 30.2567 65.7009 30.5388C65.0203 30.821 64.2268 30.962 63.3197 30.962ZM63.3197 21.1577C62.1317 21.1577 61.238 21.4877 60.6389 22.1477C60.0394 22.8077 59.7398 23.6967 59.7398 24.8145V25.1815C59.7398 25.7672 59.7991 26.3099 59.9181 26.8104C60.0367 27.3109 60.2364 27.7446 60.5172 28.1119C60.798 28.4789 61.1627 28.7663 61.6107 28.9741C62.0587 29.1815 62.6176 29.2852 63.2872 29.2852C63.9785 29.2852 64.5535 29.1868 65.0123 28.9899C65.4714 28.793 65.8387 28.5136 66.1138 28.1515C66.3892 27.7898 66.5862 27.3561 66.7052 26.8504C66.8238 26.3446 66.8831 25.7883 66.8831 25.1815V24.8145C66.8831 23.6967 66.5836 22.8077 65.9844 22.1477C65.3849 21.4877 64.4965 21.1577 63.3197 21.1577Z" fill="#2B2A29"/>
<path d="M70.3823 30.7707V19.6729H72.8447L76.0033 27.4334L79.162 19.6729H81.5757V30.7707H79.7451V22.4034L76.878 29.4613H75.1123L72.213 22.2118V30.7707H70.3823Z" fill="#2B2A29"/>
<path d="M83.5352 30.7707V19.6729H85.9975L89.1561 27.4334L92.3147 19.6729H94.7286V30.7707H92.8978V22.4034L90.0307 29.4613H88.2651L85.3658 22.2118V30.7707H83.5352Z" fill="#2B2A29"/>
<path d="M100.43 27.5286C100.171 27.4328 99.9471 27.2891 99.7581 27.0975C99.5691 26.9059 99.4149 26.6876 99.2963 26.4428L96.1377 19.928L97.9033 19.4648L100.754 25.3249C100.819 25.4528 100.889 25.5407 100.965 25.5885C101.04 25.6364 101.143 25.6606 101.272 25.6606L104.091 19.4648L105.792 19.9118L101.483 29.3811C101.397 29.5832 101.302 29.7775 101.2 29.9638C101.097 30.1501 100.967 30.3176 100.811 30.4669C100.654 30.6159 100.462 30.7354 100.236 30.826C100.009 30.9165 99.7283 30.9617 99.3935 30.9617C99.2099 30.9617 99.0235 30.938 98.8345 30.8901C98.6455 30.8422 98.4649 30.8022 98.292 30.7701V29.317H98.8426C99.0912 29.317 99.299 29.2823 99.4662 29.2133C99.6338 29.1439 99.7715 28.987 99.8794 28.7422L100.43 27.5286Z" fill="#2B2A29"/>
<path d="M108.74 25.7088V30.7546H106.925V19.6567H108.74V24.0161H114.118V19.6567H115.948V30.7546H114.118V25.7088H108.74Z" fill="#2B2A29"/>
<path d="M125.295 30.7707V22.4675L119.69 30.7707H117.908V19.6729H119.739V27.9123L125.295 19.6729H127.125V30.7707H125.295Z" fill="#2B2A29"/>
<path d="M130.915 19.6729V24.3355H131.79L134.9 19.6729H136.941L133.442 25.0543L137.621 30.7707H135.5L131.839 25.757H130.915V30.7707H129.085V19.6729H130.915Z" fill="#2B2A29"/>
<path d="M142.109 26.0444H145.494L144.02 22.3238L143.761 21.0781L143.502 22.3238L142.109 26.0444ZM141.558 27.6091L140.375 30.7707H138.448L142.643 19.6729H144.83L149.236 30.7707H147.341L146.093 27.6091H141.558Z" fill="#2B2A29"/>
<path d="M159.133 29.0939H160.203V33.0539H158.502V30.7707H149.965V19.6729H151.796V29.0939H157.303V19.6729H159.133V29.0939Z" fill="#2B2A29"/>
<path d="M169.338 30.7707V22.4675L163.734 30.7707H161.952V19.6729H163.782V27.9123L169.338 19.6729H171.169V30.7707H169.338Z" fill="#2B2A29"/>
<path d="M178.264 30.962C177.357 30.962 176.56 30.821 175.875 30.5388C175.189 30.2567 174.619 29.8604 174.166 29.3493C173.712 28.8383 173.369 28.2315 173.137 27.5289C172.905 26.8263 172.789 26.0546 172.789 25.2136V24.7825C172.789 24.0052 172.924 23.2894 173.194 22.6346C173.463 21.9799 173.841 21.4214 174.327 20.9582C174.814 20.4951 175.391 20.133 176.061 19.8724C176.73 19.6114 177.465 19.481 178.264 19.481C179.063 19.481 179.797 19.6114 180.467 19.8724C181.136 20.133 181.711 20.4951 182.192 20.9582C182.672 21.4214 183.048 21.9799 183.318 22.6346C183.588 23.2894 183.723 24.0052 183.723 24.7825V25.2136C183.723 26.0546 183.609 26.8263 183.382 27.5289C183.156 28.2315 182.813 28.8383 182.354 29.3493C181.895 29.8604 181.325 30.2567 180.645 30.5388C179.964 30.821 179.171 30.962 178.264 30.962ZM178.264 21.1577C177.076 21.1577 176.182 21.4877 175.583 22.1477C174.984 22.8077 174.684 23.6967 174.684 24.8145V25.1815C174.684 25.7672 174.743 26.3099 174.862 26.8104C174.981 27.3109 175.181 27.7446 175.461 28.1119C175.742 28.4789 176.107 28.7663 176.555 28.9741C177.003 29.1815 177.562 29.2852 178.231 29.2852C178.923 29.2852 179.498 29.1868 179.956 28.9899C180.415 28.793 180.783 28.5136 181.058 28.1515C181.333 27.7898 181.53 27.3561 181.649 26.8504C181.768 26.3446 181.827 25.7883 181.827 25.1815V24.8145C181.827 23.6967 181.528 22.8077 180.929 22.1477C180.329 21.4877 179.441 21.1577 178.264 21.1577Z" fill="#2B2A29"/>
<path d="M187.14 25.7088V30.7546H185.326V19.6567H187.14V24.0161H192.518V19.6567H194.349V30.7546H192.518V25.7088H187.14Z" fill="#2B2A29"/>
<path d="M198.123 25.7088V30.7546H196.308V19.6567H198.123V24.0161H203.501V19.6567H205.331V30.7546H203.501V25.7088H198.123Z" fill="#2B2A29"/>
<path d="M218.938 19.6729V30.7707H217.108V19.6729H218.938ZM216.038 27.5454C216.038 28.0987 215.95 28.5776 215.771 28.9823C215.593 29.387 215.342 29.7222 215.018 29.9881C214.694 30.2544 214.308 30.4513 213.86 30.5791C213.412 30.707 212.918 30.7707 212.378 30.7707H207.291V19.6729H209.122V24.176H212.637C213.782 24.176 214.635 24.4713 215.196 25.0623C215.758 25.6529 216.038 26.4807 216.038 27.5454ZM214.208 27.4334C214.208 26.8907 214.078 26.4913 213.819 26.2359C213.56 25.9802 213.085 25.8528 212.394 25.8528H209.122V29.0939H212.313C213.004 29.0939 213.493 28.9502 213.779 28.6629C214.065 28.3755 214.208 27.9655 214.208 27.4334Z" fill="#2B2A29"/>
<path d="M225.596 26.8425L222.68 30.7704H220.542L224.899 25.0061L221.287 19.9441L223.036 19.481L225.256 22.5309L225.968 23.952L226.681 22.5309L228.9 19.481L230.649 19.9441L227.037 25.0061L231.395 30.7704H229.256L226.325 26.8425L225.968 25.9799L225.596 26.8425Z" fill="#2B2A29"/>
<path d="M5.39412 38.3872V47.8083H3.56375V38.3872H0V36.7104H9.13617L8.60137 38.3872H5.39412Z" fill="#2B2A29"/>
<path d="M18.5313 47.8083H10.3022V36.7104H18.5799L18.0451 38.3872H12.1165V41.0857H17.5106V42.7784H12.1165V46.1316H18.5313V47.8083Z" fill="#2B2A29"/>
<path d="M24.9783 43.8801L22.0626 47.808H19.9243L24.2816 42.0437L20.6692 36.9817L22.4188 36.5186L24.6382 39.5685L25.3506 40.9896L26.0634 39.5685L28.2828 36.5186L30.0319 36.9817L26.4199 42.0437L30.7772 47.808H28.6389L25.7072 43.8801L25.3506 43.0175L24.9783 43.8801Z" fill="#2B2A29"/>
<path d="M34.1787 42.7469V47.7927H32.3645V36.6948H34.1787V41.0542H39.5568V36.6948H41.3871V47.7927H39.5568V42.7469H34.1787Z" fill="#2B2A29"/>
<path d="M48.4823 47.9996C47.5752 47.9996 46.7786 47.8586 46.093 47.5764C45.4071 47.2943 44.8378 46.898 44.384 46.3869C43.9307 45.8759 43.5874 45.2691 43.3556 44.5665C43.1234 43.8638 43.0071 43.0922 43.0071 42.2512V41.8201C43.0071 41.0428 43.1421 40.327 43.4122 39.6722C43.682 39.0175 44.06 38.459 44.5459 37.9959C45.0321 37.5327 45.6098 37.1707 46.2793 36.9101C46.9489 36.6491 47.6831 36.5186 48.4823 36.5186C49.2815 36.5186 50.0157 36.6491 50.6852 36.9101C51.3548 37.1707 51.9298 37.5327 52.4103 37.9959C52.8908 38.459 53.2662 39.0175 53.5363 39.6722C53.8061 40.327 53.941 41.0428 53.941 41.8201V42.2512C53.941 43.0922 53.8278 43.8638 53.601 44.5665C53.3741 45.2691 53.0313 45.8759 52.5722 46.3869C52.1134 46.898 51.5438 47.2943 50.8635 47.5764C50.1829 47.8586 49.3894 47.9996 48.4823 47.9996ZM48.4823 38.1953C47.2943 38.1953 46.4006 38.5253 45.8015 39.1853C45.202 39.8453 44.9024 40.7343 44.9024 41.8522V42.2191C44.9024 42.8048 44.9617 43.3475 45.0807 43.848C45.1993 44.3485 45.399 44.7822 45.6798 45.1495C45.9606 45.5165 46.3252 45.8039 46.7733 46.0117C47.2213 46.2191 47.7802 46.3228 48.4498 46.3228C49.1411 46.3228 49.7161 46.2244 50.1749 46.0275C50.634 45.8307 51.0013 45.5512 51.2764 45.1891C51.5518 44.8274 51.7488 44.3937 51.8678 43.888C51.9864 43.3822 52.0457 42.8259 52.0457 42.2191V41.8522C52.0457 40.7343 51.7462 39.8453 51.147 39.1853C50.5475 38.5253 49.6591 38.1953 48.4823 38.1953Z" fill="#2B2A29"/>
<path d="M55.836 47.9999C55.5984 47.9999 55.3501 47.9362 55.0911 47.8083V46.3073C55.5444 46.3073 55.8712 46.1715 56.0709 45.9C56.271 45.6288 56.403 45.312 56.468 44.95C56.5001 44.7689 56.53 44.5694 56.5572 44.3514C56.5839 44.1331 56.6084 43.8856 56.6299 43.6088L57.1969 36.7104H63.7896V47.8083H61.9593V38.3872H58.8653L58.3629 43.992C58.3415 44.1625 58.3171 44.3458 58.2903 44.543C58.2631 44.7399 58.2283 44.9552 58.1851 45.1894C58.1308 45.5089 58.0527 45.8362 57.9502 46.1715C57.8476 46.5068 57.7045 46.8104 57.5209 47.0819C57.3372 47.3531 57.1104 47.5741 56.8403 47.7446C56.5706 47.9147 56.2358 47.9999 55.836 47.9999Z" fill="#2B2A29"/>
<path d="M70.8846 47.9996C69.9775 47.9996 69.181 47.8586 68.4954 47.5764C67.8094 47.2943 67.24 46.898 66.7863 46.3869C66.3329 45.8759 65.9898 45.2691 65.7579 44.5665C65.5257 43.8638 65.4094 43.0922 65.4094 42.2512V41.8201C65.4094 41.0428 65.5445 40.327 65.8146 39.6722C66.0843 39.0175 66.4623 38.459 66.9481 37.9959C67.4344 37.5327 68.0121 37.1707 68.6817 36.9101C69.3512 36.6491 70.0854 36.5186 70.8846 36.5186C71.6839 36.5186 72.418 36.6491 73.0876 36.9101C73.7571 37.1707 74.3321 37.5327 74.8127 37.9959C75.2932 38.459 75.6685 39.0175 75.9386 39.6722C76.2083 40.327 76.3434 41.0428 76.3434 41.8201V42.2512C76.3434 43.0922 76.2301 43.8638 76.0032 44.5665C75.7764 45.2691 75.4336 45.8759 74.9745 46.3869C74.5158 46.898 73.9461 47.2943 73.2659 47.5764C72.5852 47.8586 71.7917 47.9996 70.8846 47.9996ZM70.8846 38.1953C69.6967 38.1953 68.8029 38.5253 68.2038 39.1853C67.6043 39.8453 67.3047 40.7343 67.3047 41.8522V42.2191C67.3047 42.8048 67.364 43.3475 67.483 43.848C67.6016 44.3485 67.8013 44.7822 68.0822 45.1495C68.363 45.5165 68.7276 45.8039 69.1756 46.0117C69.6236 46.2191 70.1826 46.3228 70.8521 46.3228C71.5435 46.3228 72.1185 46.2244 72.5772 46.0275C73.0363 45.8307 73.4036 45.5512 73.6786 45.1891C73.9541 44.8274 74.1512 44.3937 74.2702 43.888C74.3888 43.3822 74.4481 42.8259 74.4481 42.2191V41.8522C74.4481 40.7343 74.1485 39.8453 73.5494 39.1853C72.9499 38.5253 72.0615 38.1953 70.8846 38.1953Z" fill="#2B2A29"/>
<path d="M77.9468 47.8083V36.7104H85.3495L84.7989 38.3872H79.7774V47.8083H77.9468Z" fill="#2B2A29"/>
<path d="M93.7079 47.8083V39.5051L88.1034 47.8083H86.3213V36.7104H88.152V44.95L93.7079 36.7104H95.5382V47.8083H93.7079Z" fill="#2B2A29"/>
<path d="M104.885 47.8088V39.5055L99.2804 47.8088H97.4983V36.7109H99.329V44.9504L104.885 36.7109H106.715V47.8088H104.885ZM102.002 36.0245C101.699 36.0245 101.405 35.9898 101.119 35.9208C100.833 35.8514 100.576 35.7371 100.349 35.5772C100.123 35.4177 99.9415 35.2155 99.8068 34.9704C99.6718 34.7256 99.6041 34.4277 99.6041 34.0762H100.754C100.754 34.3956 100.876 34.6219 101.119 34.755C101.362 34.8882 101.656 34.9545 102.002 34.9545C102.325 34.9545 102.614 34.8908 102.868 34.763C103.122 34.6351 103.249 34.4062 103.249 34.0762H104.399C104.399 34.4277 104.329 34.7282 104.188 34.9787C104.048 35.2287 103.865 35.4309 103.638 35.5851C103.411 35.7397 103.155 35.8514 102.868 35.9208C102.582 35.9898 102.293 36.0245 102.002 36.0245Z" fill="#2B2A29"/>
</svg>
