<svg width="24" height="24" viewBox="0 0 24 24" fill="none" xmlns="http://www.w3.org/2000/svg">
<rect width="24" height="24" fill="#181818"/>
<g clip-path="url(#clip0_263_2731)">
<rect width="1440" height="4973" transform="translate(-741 -41)" fill="#F0F5FB"/>
<path d="M-741 -41H699V66H-741V-41Z" fill="#F0F5FB"/>
<g filter="url(#filter0_d_263_2731)">
<rect x="-356" y="-12" width="400" height="48" rx="24" fill="#F0F5FB" shape-rendering="crispEdges"/>
<path d="M11.5 21C16.7467 21 21 16.7467 21 11.5C21 6.25329 16.7467 2 11.5 2C6.25329 2 2 6.25329 2 11.5C2 16.7467 6.25329 21 11.5 21Z" stroke="url(#paint0_linear_263_2731)" stroke-width="1.5" stroke-linecap="round" stroke-linejoin="round"/>
<path d="M22 22L20 20" stroke="url(#paint1_linear_263_2731)" stroke-width="1.5" stroke-linecap="round" stroke-linejoin="round"/>
<rect x="-355.5" y="-11.5" width="399" height="47" rx="23.5" stroke="#CADCF2" shape-rendering="crispEdges"/>
</g>
</g>
<defs>
<filter id="filter0_d_263_2731" x="-359" y="-15" width="406" height="54" filterUnits="userSpaceOnUse" color-interpolation-filters="sRGB">
<feFlood flood-opacity="0" result="BackgroundImageFix"/>
<feColorMatrix in="SourceAlpha" type="matrix" values="0 0 0 0 0 0 0 0 0 0 0 0 0 0 0 0 0 0 127 0" result="hardAlpha"/>
<feOffset/>
<feGaussianBlur stdDeviation="1.5"/>
<feComposite in2="hardAlpha" operator="out"/>
<feColorMatrix type="matrix" values="0 0 0 0 0 0 0 0 0 0 0 0 0 0 0 0 0 0 0.1 0"/>
<feBlend mode="normal" in2="BackgroundImageFix" result="effect1_dropShadow_263_2731"/>
<feBlend mode="normal" in="SourceGraphic" in2="effect1_dropShadow_263_2731" result="shape"/>
</filter>
<linearGradient id="paint0_linear_263_2731" x1="4.13609" y1="21" x2="22.5599" y2="18.8989" gradientUnits="userSpaceOnUse">
<stop stop-color="#175DF8"/>
<stop offset="1" stop-color="#004EFB"/>
</linearGradient>
<linearGradient id="paint1_linear_263_2731" x1="20.2249" y1="22" x2="22.1642" y2="21.7788" gradientUnits="userSpaceOnUse">
<stop stop-color="#175DF8"/>
<stop offset="1" stop-color="#004EFB"/>
</linearGradient>
<clipPath id="clip0_263_2731">
<rect width="1440" height="4973" fill="white" transform="translate(-741 -41)"/>
</clipPath>
</defs>
</svg>
