<svg width="12" height="14" viewBox="0 0 12 14" xmlns="http://www.w3.org/2000/svg">
<path d="M0.6 -9.53674e-07H10.5V2.48H3.6V5.16H6.2C7.16 5.16 7.98667 5.26667 8.68 5.48C9.38667 5.69333 9.96667 5.99333 10.42 6.38C10.8867 6.76667 11.2333 7.23333 11.46 7.78C11.6867 8.31333 11.8 8.91333 11.8 9.58C11.8 10.2467 11.6867 10.8533 11.46 11.4C11.2333 11.9333 10.8867 12.3933 10.42 12.78C9.96667 13.1667 9.38667 13.4667 8.68 13.68C7.98667 13.8933 7.16 14 6.2 14H0.6V-9.53674e-07ZM5.9 11.52C6.99333 11.52 7.74667 11.3533 8.16 11.02C8.58667 10.6733 8.8 10.1933 8.8 9.58C8.8 8.96667 8.58667 8.49333 8.16 8.16C7.74667 7.81333 6.99333 7.64 5.9 7.64H3.6V11.52H5.9Z" />
</svg>
