<svg width="130" height="50" viewBox="0 0 130 50" fill="none" xmlns="http://www.w3.org/2000/svg">
<path fill-rule="evenodd" clip-rule="evenodd" d="M0 6.54486L11.3361 0C17.8811 3.77868 24.426 7.55747 30.9709 11.3361V34.0085L19.6348 40.5533V17.881C13.0899 14.1023 6.54495 10.3236 0 6.54486Z" fill="#004494"/>
<path fill-rule="evenodd" clip-rule="evenodd" d="M11.3361 14.2383C4.79116 18.0171 6.54496 17.0046 0 20.7832V43.4555L11.3361 50.0004C11.3361 29.0388 11.3361 30.8297 11.3361 14.2383V14.2383Z" fill="#2CA72A"/>
<path fill-rule="evenodd" clip-rule="evenodd" d="M43.0064 22.686V15.863H54.2915V22.686H43.0064ZM43.0064 33.971V27.2128H56.5552L58.7864 24.9494V13.6318L56.5552 11.3359H38.4794V33.971H43.0064ZM84.2994 38.4981V29.4439H82.0035V11.3359H77.5087V29.4439H66.2235V11.3359H61.6965V33.971H79.7723V38.4981H84.2994ZM91.4131 33.971L102.698 18.8704V33.971H107.193V11.3359H102.698L91.4131 26.4044V11.3359H86.886V33.971H91.4131ZM121.906 33.971V15.863H129.763V11.3359H109.456V15.863H117.379V33.971H121.906Z" fill="white"/>
</svg>
