<svg width="97" height="167" viewBox="0 0 97 167" fill="none" xmlns="http://www.w3.org/2000/svg">
<path d="M96.5 105.584L61.9961 125.385V55.6663V55.3768L61.745 55.2327L1.00455 20.3746L35.5041 0.576479C55.8361 12.2438 76.168 23.912 96.5 35.5803V105.584Z" stroke="#CADCF2"/>
<path d="M0.5 146.335V76.3316C6.73261 72.7548 10.532 70.5744 13.4056 68.9253C19.7312 65.2952 21.5712 64.2393 35.0041 56.53V56.5686V56.8667V57.1635V57.459V57.7533V58.0463V58.338V58.6284V58.9176V59.2056V59.4923V59.7778V60.0621V60.3451V60.6269V60.9075V61.1869V61.4651V61.7421V62.0179V62.2926V62.566V62.8383V63.1094V63.3793V63.6481V63.9158V64.1823V64.4476V64.7119V64.975V65.2369V65.4978V65.7576V66.0162V66.2738V66.5302V66.7856V67.0399V67.2931V67.5453V67.7964V68.0464V68.2954V68.5433V68.7902V69.036V69.2809V69.5247V69.7674V70.0092V70.25V70.4897V70.7285V70.9663V71.2031V71.4389V71.6738V71.9076V72.1406V72.3725V72.6035V72.8336V73.0627V73.2909V73.5182V73.7446V73.97V74.1946V74.4182V74.6409V74.8628V75.0837V75.3038V75.523V75.7413V75.9588V76.1754V76.3911V76.606V76.8201V77.0333V77.2458V77.4573V77.6681V77.8781V78.0872V78.2955V78.5031V78.7099V78.9158V79.121V79.3255V79.5291V79.732V79.9342V80.1356V80.3363V80.5362V80.7354V80.9338V81.1316V81.3286V81.5249V81.7205V81.9155V82.1097V82.3032V82.4961V82.6883V82.8798V83.0707V83.2609V83.4504V83.6393V83.8276V84.0152V84.2022V84.3886V84.5743V84.7595V84.944V85.128V85.3113V85.4941V85.6763V85.8578V86.0389V86.2193V86.3992V86.5786V86.7574V86.9356V87.1134V87.2906V87.4672V87.6434V87.819V87.9941V88.1687V88.3429V88.5165V88.6896V88.8623V89.0345V89.2062V89.3775V89.5483V89.7186V89.8885V90.058V90.227V90.3956V90.5638V90.7316V90.899V91.0659V91.2325V91.3986V91.5644V91.7298V91.8948V92.0594V92.2237V92.3876V92.5512V92.7144V92.8772V93.0398V93.202V93.3638V93.5254V93.6866V93.8476V94.0082V94.1686V94.3286V94.4884V94.6478V94.807V94.966V95.1247V95.2831V95.4413V95.5992V95.7569V95.9143V96.0715V96.2285V96.3853V96.5419V96.6983V96.8544V97.0104V97.1662V97.3218V97.4772V97.6325V97.7876V97.9425V98.0973V98.252V98.4065V98.5608V98.715V98.8691V99.0231V99.177V99.3308V99.4844V99.638V99.7915V99.9448V100.098V100.251V100.405V100.558V100.711V100.864V101.017V101.17V101.322V101.475V101.628V101.781V101.934V102.087V102.239V102.392V102.545V102.698V102.851V103.004V103.157V103.31V103.463V103.616V103.769V103.922V104.075V104.229V104.382V104.535V104.689V104.843V104.997V105.151V105.305V105.459V105.613V105.767V105.922V106.077V106.231V106.386V106.542V106.697V106.852V107.008V107.164V107.32V107.476V107.633V107.789V107.946V108.103V108.261V108.418V108.576V108.734V108.892V109.051V109.21V109.369V109.528V109.688V109.847V110.008V110.168V110.329V110.49V110.651V110.813V110.975V111.137V111.3V111.463V111.626V111.79V111.954V112.118V112.283V112.448V112.614V112.78V112.946V113.113V113.28V113.447V113.615V113.784V113.952V114.122V114.291V114.461V114.632V114.803V114.974V115.146V115.319V115.492V115.665V115.839V116.013V116.188V116.363V116.539V116.715V116.892V117.07V117.248V117.426V117.605V117.785V117.965V118.145V118.327V118.508V118.691V118.874V119.057V119.242V119.426V119.612V119.798V119.984V120.172V120.36V120.548V120.737V120.927V121.117V121.309V121.5V121.693V121.886V122.08V122.274V122.469V122.665V122.862V123.059V123.257V123.456V123.656V123.856V124.057V124.258V124.461V124.664V124.868V125.073V125.278V125.485V125.692V125.899V126.108V126.318V126.528V126.739V126.951V127.164V127.377V127.592V127.807V128.023V128.24V128.458V128.676V128.896V129.116V129.338V129.56V129.783V130.007V130.232V130.458V130.684V130.912V131.14V131.37V131.6V131.832V132.064V132.297V132.532V132.767V133.003V133.24V133.479V133.718V133.958V134.199V134.441V134.684V134.929V135.174V135.42V135.667V135.916V136.165V136.416V136.667V136.92V137.173V137.428V137.684V137.941V138.199V138.458V138.718V138.979V139.242V139.505V139.77V140.036V140.303V140.571V140.84V141.11V141.382V141.655V141.929V142.204V142.48V142.757V143.036V143.316V143.597V143.879V144.163V144.448V144.734V145.021V145.309V145.599V145.89V146.182V146.476V146.77V147.066V147.364V147.662V147.962V148.263V148.566V148.87V149.175V149.481V149.789V150.098V150.409V150.721V151.034V151.348V151.664V151.981V152.3V152.62V152.942V153.264V153.589V153.914V154.241V154.57V154.899V155.231V155.563V155.897V156.233V156.57V156.909V157.249V157.59V157.933V158.277V158.623V158.97V159.319V159.67V160.021V160.375V160.73V161.086V161.444V161.803V162.164V162.527V162.891V163.257V163.624V163.993V164.363V164.735V165.109V165.484V165.86V166.137L0.5 146.335Z" stroke="#CADCF2"/>
</svg>
