<svg width="247" height="158" viewBox="0 0 247 158" fill="none" xmlns="http://www.w3.org/2000/svg">
<g clip-path="url(#clip0_649_4674)">
<path fill-rule="evenodd" clip-rule="evenodd" d="M246.712 0L246.712 4.82442L241.92 4.82442L241.92 -2.09457e-07L246.712 0Z" fill="#D8D8D8"/>
<path fill-rule="evenodd" clip-rule="evenodd" d="M224.67 0L224.67 4.82442L219.878 4.82442L219.878 -2.09457e-07L224.67 0Z" fill="#D8D8D8"/>
<path fill-rule="evenodd" clip-rule="evenodd" d="M202.627 0L202.627 4.82442L197.836 4.82442L197.836 -2.09457e-07L202.627 0Z" fill="#D8D8D8"/>
<path fill-rule="evenodd" clip-rule="evenodd" d="M180.585 0L180.585 4.82442L175.793 4.82442L175.793 -2.09457e-07L180.585 0Z" fill="#D8D8D8"/>
<path fill-rule="evenodd" clip-rule="evenodd" d="M246.712 22.1924L246.712 27.0168L241.92 27.0168L241.92 22.1924L246.712 22.1924Z" fill="#D8D8D8"/>
<path fill-rule="evenodd" clip-rule="evenodd" d="M224.67 22.1924L224.67 27.0168L219.878 27.0168L219.878 22.1924L224.67 22.1924Z" fill="#D8D8D8"/>
<path fill-rule="evenodd" clip-rule="evenodd" d="M202.627 22.1924L202.627 27.0168L197.836 27.0168L197.836 22.1924L202.627 22.1924Z" fill="#D8D8D8"/>
<path fill-rule="evenodd" clip-rule="evenodd" d="M180.585 22.1924L180.585 27.0168L175.793 27.0168L175.793 22.1924L180.585 22.1924Z" fill="#D8D8D8"/>
<path fill-rule="evenodd" clip-rule="evenodd" d="M246.712 43.9023L246.712 48.7268L241.92 48.7268L241.92 43.9023L246.712 43.9023Z" fill="#D8D8D8"/>
<path fill-rule="evenodd" clip-rule="evenodd" d="M224.67 43.9023L224.67 48.7268L219.878 48.7268L219.878 43.9023L224.67 43.9023Z" fill="#D8D8D8"/>
<path fill-rule="evenodd" clip-rule="evenodd" d="M202.627 43.9023L202.627 48.7268L197.836 48.7268L197.836 43.9023L202.627 43.9023Z" fill="#D8D8D8"/>
<path fill-rule="evenodd" clip-rule="evenodd" d="M180.585 43.9023L180.585 48.7268L175.793 48.7268L175.793 43.9023L180.585 43.9023Z" fill="#D8D8D8"/>
<path fill-rule="evenodd" clip-rule="evenodd" d="M246.712 66.0947L246.712 70.9191L241.92 70.9191L241.92 66.0947L246.712 66.0947Z" fill="#D8D8D8"/>
<path fill-rule="evenodd" clip-rule="evenodd" d="M224.67 66.0947L224.67 70.9191L219.878 70.9191L219.878 66.0947L224.67 66.0947Z" fill="#D8D8D8"/>
<path fill-rule="evenodd" clip-rule="evenodd" d="M202.627 66.0947L202.627 70.9191L197.836 70.9191L197.836 66.0947L202.627 66.0947Z" fill="#D8D8D8"/>
<path fill-rule="evenodd" clip-rule="evenodd" d="M180.585 66.0947L180.585 70.9191L175.793 70.9191L175.793 66.0947L180.585 66.0947Z" fill="#D8D8D8"/>
<path fill-rule="evenodd" clip-rule="evenodd" d="M159.172 0L159.172 4.82442L154.38 4.82442L154.38 -2.09457e-07L159.172 0Z" fill="#D8D8D8"/>
<path fill-rule="evenodd" clip-rule="evenodd" d="M137.129 0L137.129 4.82442L132.337 4.82442L132.337 -2.09457e-07L137.129 0Z" fill="#D8D8D8"/>
<path fill-rule="evenodd" clip-rule="evenodd" d="M115.087 0L115.087 4.82442L110.295 4.82442L110.295 -2.09457e-07L115.087 0Z" fill="#D8D8D8"/>
<path fill-rule="evenodd" clip-rule="evenodd" d="M93.0444 0L93.0444 4.82442L88.2526 4.82442L88.2526 -2.09457e-07L93.0444 0Z" fill="#D8D8D8"/>
<path fill-rule="evenodd" clip-rule="evenodd" d="M159.172 22.1924L159.172 27.0168L154.38 27.0168L154.38 22.1924L159.172 22.1924Z" fill="#D8D8D8"/>
<path fill-rule="evenodd" clip-rule="evenodd" d="M137.129 22.1924L137.129 27.0168L132.337 27.0168L132.337 22.1924L137.129 22.1924Z" fill="#D8D8D8"/>
<path fill-rule="evenodd" clip-rule="evenodd" d="M115.087 22.1924L115.087 27.0168L110.295 27.0168L110.295 22.1924L115.087 22.1924Z" fill="#D8D8D8"/>
<path fill-rule="evenodd" clip-rule="evenodd" d="M93.0444 22.1924L93.0444 27.0168L88.2526 27.0168L88.2526 22.1924L93.0444 22.1924Z" fill="#D8D8D8"/>
<path fill-rule="evenodd" clip-rule="evenodd" d="M159.172 43.9023L159.172 48.7268L154.38 48.7268L154.38 43.9023L159.172 43.9023Z" fill="#D8D8D8"/>
<path fill-rule="evenodd" clip-rule="evenodd" d="M137.129 43.9023L137.129 48.7268L132.337 48.7268L132.337 43.9023L137.129 43.9023Z" fill="#D8D8D8"/>
<path fill-rule="evenodd" clip-rule="evenodd" d="M115.087 43.9023L115.087 48.7268L110.295 48.7268L110.295 43.9023L115.087 43.9023Z" fill="#D8D8D8"/>
<path fill-rule="evenodd" clip-rule="evenodd" d="M93.0444 43.9023L93.0444 48.7268L88.2526 48.7268L88.2526 43.9023L93.0444 43.9023Z" fill="#D8D8D8"/>
<path fill-rule="evenodd" clip-rule="evenodd" d="M159.172 66.0947L159.172 70.9191L154.38 70.9191L154.38 66.0947L159.172 66.0947Z" fill="#D8D8D8"/>
<path fill-rule="evenodd" clip-rule="evenodd" d="M137.129 66.0947L137.129 70.9191L132.337 70.9191L132.337 66.0947L137.129 66.0947Z" fill="#D8D8D8"/>
<path fill-rule="evenodd" clip-rule="evenodd" d="M115.087 66.0947L115.087 70.9191L110.295 70.9191L110.295 66.0947L115.087 66.0947Z" fill="#D8D8D8"/>
<path fill-rule="evenodd" clip-rule="evenodd" d="M93.0444 66.0947L93.0444 70.9191L88.2526 70.9191L88.2526 66.0947L93.0444 66.0947Z" fill="#D8D8D8"/>
<path fill-rule="evenodd" clip-rule="evenodd" d="M71.6311 0L71.6311 4.82442L66.8393 4.82442L66.8393 -2.09457e-07L71.6311 0Z" fill="#D7D7D8"/>
<path fill-rule="evenodd" clip-rule="evenodd" d="M49.5886 0L49.5886 4.82442L44.7968 4.82442L44.7968 -2.09457e-07L49.5886 0Z" fill="#D8D8D8"/>
<path fill-rule="evenodd" clip-rule="evenodd" d="M27.5464 0L27.5464 4.82442L22.7546 4.82442L22.7546 -2.09457e-07L27.5464 0Z" fill="#D8D8D8"/>
<path fill-rule="evenodd" clip-rule="evenodd" d="M5.50391 0L5.50391 4.82442L0.712086 4.82442L0.712086 -2.09457e-07L5.50391 0Z" fill="#D8D8D8"/>
<path fill-rule="evenodd" clip-rule="evenodd" d="M71.6311 22.1924L71.6311 27.0168L66.8393 27.0168L66.8393 22.1924L71.6311 22.1924Z" fill="#D8D8D8"/>
<path fill-rule="evenodd" clip-rule="evenodd" d="M49.5886 22.1924L49.5886 27.0168L44.7968 27.0168L44.7968 22.1924L49.5886 22.1924Z" fill="#D8D8D8"/>
<path fill-rule="evenodd" clip-rule="evenodd" d="M27.5464 22.1924L27.5464 27.0168L22.7546 27.0168L22.7546 22.1924L27.5464 22.1924Z" fill="#D8D8D8"/>
<path fill-rule="evenodd" clip-rule="evenodd" d="M5.50391 22.1924L5.50391 27.0168L0.712086 27.0168L0.712086 22.1924L5.50391 22.1924Z" fill="#D8D8D8"/>
<path fill-rule="evenodd" clip-rule="evenodd" d="M71.6311 43.9023L71.6311 48.7268L66.8393 48.7268L66.8393 43.9023L71.6311 43.9023Z" fill="#D8D8D8"/>
<path fill-rule="evenodd" clip-rule="evenodd" d="M49.5886 43.9023L49.5886 48.7268L44.7968 48.7268L44.7968 43.9023L49.5886 43.9023Z" fill="#D8D8D8"/>
<path fill-rule="evenodd" clip-rule="evenodd" d="M27.5464 43.9023L27.5464 48.7268L22.7546 48.7268L22.7546 43.9023L27.5464 43.9023Z" fill="#D8D8D8"/>
<path fill-rule="evenodd" clip-rule="evenodd" d="M5.50391 43.9023L5.50391 48.7268L0.712086 48.7268L0.712086 43.9023L5.50391 43.9023Z" fill="#D8D8D8"/>
<path fill-rule="evenodd" clip-rule="evenodd" d="M71.6311 66.0947L71.6311 70.9191L66.8393 70.9191L66.8393 66.0947L71.6311 66.0947Z" fill="#D8D8D8"/>
<path fill-rule="evenodd" clip-rule="evenodd" d="M49.5886 66.0947L49.5886 70.9191L44.7968 70.9191L44.7968 66.0947L49.5886 66.0947Z" fill="#D8D8D8"/>
<path fill-rule="evenodd" clip-rule="evenodd" d="M27.5464 66.0947L27.5464 70.9191L22.7546 70.9191L22.7546 66.0947L27.5464 66.0947Z" fill="#D8D8D8"/>
<path fill-rule="evenodd" clip-rule="evenodd" d="M5.50391 66.0947L5.50391 70.9191L0.712086 70.9191L0.712086 66.0947L5.50391 66.0947Z" fill="#D8D8D8"/>
<path fill-rule="evenodd" clip-rule="evenodd" d="M246.712 87.541L246.712 92.3654L241.92 92.3654L241.92 87.541L246.712 87.541Z" fill="#D8D8D8"/>
<path fill-rule="evenodd" clip-rule="evenodd" d="M224.67 87.541L224.67 92.3654L219.878 92.3654L219.878 87.541L224.67 87.541Z" fill="#D8D8D8"/>
<path fill-rule="evenodd" clip-rule="evenodd" d="M202.627 87.541L202.627 92.3654L197.836 92.3654L197.836 87.541L202.627 87.541Z" fill="#D8D8D8"/>
<path fill-rule="evenodd" clip-rule="evenodd" d="M180.585 87.541L180.585 92.3654L175.793 92.3654L175.793 87.541L180.585 87.541Z" fill="#D8D8D8"/>
<path fill-rule="evenodd" clip-rule="evenodd" d="M246.712 109.732L246.712 114.557L241.92 114.557L241.92 109.732L246.712 109.732Z" fill="#D8D8D8"/>
<path fill-rule="evenodd" clip-rule="evenodd" d="M224.67 109.732L224.67 114.557L219.878 114.557L219.878 109.732L224.67 109.732Z" fill="#D8D8D8"/>
<path fill-rule="evenodd" clip-rule="evenodd" d="M202.627 109.732L202.627 114.557L197.836 114.557L197.836 109.732L202.627 109.732Z" fill="#D8D8D8"/>
<path fill-rule="evenodd" clip-rule="evenodd" d="M180.585 109.732L180.585 114.557L175.793 114.557L175.793 109.732L180.585 109.732Z" fill="#D8D8D8"/>
<path fill-rule="evenodd" clip-rule="evenodd" d="M246.712 131.442L246.712 136.267L241.92 136.267L241.92 131.442L246.712 131.442Z" fill="#D8D8D8"/>
<path fill-rule="evenodd" clip-rule="evenodd" d="M224.67 131.442L224.67 136.267L219.878 136.267L219.878 131.442L224.67 131.442Z" fill="#D8D8D8"/>
<path fill-rule="evenodd" clip-rule="evenodd" d="M202.627 131.442L202.627 136.267L197.836 136.267L197.836 131.442L202.627 131.442Z" fill="#D8D8D8"/>
<path fill-rule="evenodd" clip-rule="evenodd" d="M180.585 131.442L180.585 136.267L175.793 136.267L175.793 131.442L180.585 131.442Z" fill="#D8D8D8"/>
<path fill-rule="evenodd" clip-rule="evenodd" d="M246.712 153.635L246.712 158.459L241.92 158.459L241.92 153.635L246.712 153.635Z" fill="#D8D8D8"/>
<path fill-rule="evenodd" clip-rule="evenodd" d="M224.67 153.635L224.67 158.459L219.878 158.459L219.878 153.635L224.67 153.635Z" fill="#D8D8D8"/>
<path fill-rule="evenodd" clip-rule="evenodd" d="M202.627 153.635L202.627 158.459L197.836 158.459L197.836 153.635L202.627 153.635Z" fill="#D8D8D8"/>
<path fill-rule="evenodd" clip-rule="evenodd" d="M180.585 153.635L180.585 158.459L175.793 158.459L175.793 153.635L180.585 153.635Z" fill="#D8D8D8"/>
<path fill-rule="evenodd" clip-rule="evenodd" d="M159.172 87.541L159.172 92.3654L154.38 92.3654L154.38 87.541L159.172 87.541Z" fill="#D7D7D7"/>
<path fill-rule="evenodd" clip-rule="evenodd" d="M137.129 87.541L137.129 92.3654L132.338 92.3654L132.338 87.541L137.129 87.541Z" fill="#D8D8D8"/>
<path fill-rule="evenodd" clip-rule="evenodd" d="M115.087 87.541L115.087 92.3654L110.295 92.3654L110.295 87.541L115.087 87.541Z" fill="#D8D8D8"/>
<path fill-rule="evenodd" clip-rule="evenodd" d="M93.0444 87.541L93.0444 92.3654L88.2526 92.3654L88.2526 87.541L93.0444 87.541Z" fill="#D8D8D8"/>
<path fill-rule="evenodd" clip-rule="evenodd" d="M159.172 109.732L159.172 114.557L154.38 114.557L154.38 109.732L159.172 109.732Z" fill="#D8D8D8"/>
<path fill-rule="evenodd" clip-rule="evenodd" d="M137.129 109.732L137.129 114.557L132.338 114.557L132.338 109.732L137.129 109.732Z" fill="#D8D8D8"/>
<path fill-rule="evenodd" clip-rule="evenodd" d="M115.087 109.732L115.087 114.557L110.295 114.557L110.295 109.732L115.087 109.732Z" fill="#D8D8D8"/>
<path fill-rule="evenodd" clip-rule="evenodd" d="M93.0444 109.732L93.0444 114.557L88.2526 114.557L88.2526 109.732L93.0444 109.732Z" fill="#D8D8D8"/>
<path fill-rule="evenodd" clip-rule="evenodd" d="M159.172 131.442L159.172 136.267L154.38 136.267L154.38 131.442L159.172 131.442Z" fill="#D8D8D8"/>
<path fill-rule="evenodd" clip-rule="evenodd" d="M137.129 131.442L137.129 136.267L132.338 136.267L132.338 131.442L137.129 131.442Z" fill="#D8D8D8"/>
<path fill-rule="evenodd" clip-rule="evenodd" d="M115.087 131.442L115.087 136.267L110.295 136.267L110.295 131.442L115.087 131.442Z" fill="#D8D8D8"/>
<path fill-rule="evenodd" clip-rule="evenodd" d="M93.0444 131.442L93.0444 136.267L88.2526 136.267L88.2526 131.442L93.0444 131.442Z" fill="#D8D8D8"/>
<path fill-rule="evenodd" clip-rule="evenodd" d="M159.172 153.635L159.172 158.459L154.38 158.459L154.38 153.635L159.172 153.635Z" fill="#D8D8D8"/>
<path fill-rule="evenodd" clip-rule="evenodd" d="M137.129 153.635L137.129 158.459L132.338 158.459L132.338 153.635L137.129 153.635Z" fill="#D8D8D8"/>
<path fill-rule="evenodd" clip-rule="evenodd" d="M115.087 153.635L115.087 158.459L110.295 158.459L110.295 153.635L115.087 153.635Z" fill="#D8D8D8"/>
<path fill-rule="evenodd" clip-rule="evenodd" d="M93.0444 153.635L93.0444 158.459L88.2526 158.459L88.2526 153.635L93.0444 153.635Z" fill="#D8D8D8"/>
<path fill-rule="evenodd" clip-rule="evenodd" d="M49.5886 87.541L49.5886 92.3654L44.7968 92.3654L44.7968 87.541L49.5886 87.541Z" fill="#D8D8D8"/>
<path fill-rule="evenodd" clip-rule="evenodd" d="M27.5464 87.541L27.5464 92.3654L22.7546 92.3654L22.7546 87.541L27.5464 87.541Z" fill="#D8D8D8"/>
<path fill-rule="evenodd" clip-rule="evenodd" d="M5.50391 87.541L5.50391 92.3654L0.712086 92.3654L0.712086 87.541L5.50391 87.541Z" fill="#D8D8D8"/>
<path fill-rule="evenodd" clip-rule="evenodd" d="M49.5886 109.732L49.5886 114.557L44.7968 114.557L44.7968 109.732L49.5886 109.732Z" fill="#D8D8D8"/>
<path fill-rule="evenodd" clip-rule="evenodd" d="M27.5464 109.732L27.5464 114.557L22.7546 114.557L22.7546 109.732L27.5464 109.732Z" fill="#D8D8D8"/>
<path fill-rule="evenodd" clip-rule="evenodd" d="M5.50391 109.732L5.50391 114.557L0.712086 114.557L0.712086 109.732L5.50391 109.732Z" fill="#D8D8D8"/>
<path fill-rule="evenodd" clip-rule="evenodd" d="M49.5886 131.442L49.5886 136.267L44.7968 136.267L44.7968 131.442L49.5886 131.442Z" fill="#D8D8D8"/>
<path fill-rule="evenodd" clip-rule="evenodd" d="M27.5464 131.442L27.5464 136.267L22.7546 136.267L22.7546 131.442L27.5464 131.442Z" fill="#D8D8D8"/>
<path fill-rule="evenodd" clip-rule="evenodd" d="M5.50391 131.442L5.50391 136.267L0.712086 136.267L0.712086 131.442L5.50391 131.442Z" fill="#D8D8D8"/>
<path fill-rule="evenodd" clip-rule="evenodd" d="M49.5886 153.635L49.5886 158.459L44.7968 158.459L44.7968 153.635L49.5886 153.635Z" fill="#D8D8D8"/>
<path fill-rule="evenodd" clip-rule="evenodd" d="M27.5464 153.635L27.5464 158.459L22.7546 158.459L22.7546 153.635L27.5464 153.635Z" fill="#D8D8D8"/>
<path fill-rule="evenodd" clip-rule="evenodd" d="M5.50391 153.635L5.50391 158.459L0.712086 158.459L0.712086 153.635L5.50391 153.635Z" fill="#D8D8D8"/>
<path fill-rule="evenodd" clip-rule="evenodd" d="M66.6311 109.732H71.4555V114.524H66.6311V109.732Z" fill="#01114A"/>
<path fill-rule="evenodd" clip-rule="evenodd" d="M66.6311 131.732H71.4555V136.524H66.6311V131.732Z" fill="#01114A"/>
<path fill-rule="evenodd" clip-rule="evenodd" d="M66.6311 153.732H71.4555V158.524H66.6311V153.732Z" fill="#01114A"/>
<path fill-rule="evenodd" clip-rule="evenodd" d="M66.7122 88H71.5366V92.7918H66.7122V88Z" fill="#00BCE8"/>
</g>
<defs>
<clipPath id="clip0_649_4674">
<rect width="246" height="158" fill="white" transform="translate(0.712158)"/>
</clipPath>
</defs>
</svg>
